<svg xmlns="http://www.w3.org/2000/svg" viewBox="0 0 200 60" fill="#FFFFFF">
  <!-- Dell Logo - White Version -->
  <g transform="translate(10, 8)" fill="#FFFFFF">
    <!-- D -->
    <path d="M0 0 L0 44 L12 44 Q20 44 24 40 Q28 36 28 28 Q28 20 24 16 Q20 12 12 12 L8 12 L8 0 Z M8 12 L12 12 Q18 12 20 16 Q22 20 22 28 Q22 36 20 40 Q18 44 12 44 L8 44 Z" fill="#FFFFFF"/>
    <!-- E -->
    <path d="M32 0 L32 44 L48 44 L48 36 L40 36 L40 24 L46 24 L46 16 L40 16 L40 8 L48 8 L48 0 Z" fill="#FFFFFF"/>
    <!-- L -->
    <path d="M52 0 L52 44 L64 44 L64 8 L72 8 L72 0 Z" fill="#FFFFFF"/>
    <!-- L -->
    <path d="M76 0 L76 44 L88 44 L88 8 L96 8 L96 0 Z" fill="#FFFFFF"/>
  </g>
  <!-- DELL Text -->
  <text x="110" y="38" font-family="Arial, Helvetica, sans-serif" font-size="28" font-weight="700" fill="#FFFFFF" letter-spacing="2" opacity="0.95">DELL</text>
</svg>
