<svg xmlns="http://www.w3.org/2000/svg" viewBox="0 0 300 120" fill="#000000">
  <!-- Warner Bros Official Shield Logo -->
  <!-- Yellow Shield Outline -->
  <path d="M150 10 Q180 10 195 15 L270 25 Q285 32 285 45 L285 85 Q285 98 270 105 L195 115 Q180 120 150 120 Q120 120 105 115 L30 105 Q15 98 15 85 L15 45 Q15 32 30 25 L105 15 Q120 10 150 10 Z" fill="#FFD700" stroke="#FFD700" stroke-width="3"/>
  
  <!-- Blue Shield Interior -->
  <path d="M150 15 Q175 15 188 18 L265 27 Q278 33 278 45 L278 85 Q278 97 265 103 L188 112 Q175 115 150 115 Q125 115 112 112 L35 103 Q22 97 22 85 L22 45 Q22 33 35 27 L112 18 Q125 15 150 15 Z" fill="#003DA5"/>
  
  <!-- WB Letters - W -->
  <path d="M90 50 L90 85 L100 85 L100 70 L110 85 L120 85 L110 50 L100 50 L100 65 L90 50 Z" fill="#FFD700"/>
  
  <!-- WB Letters - B -->
  <path d="M130 50 L130 85 L150 85 Q160 85 165 80 Q170 75 170 67.5 Q170 60 165 55 Q160 50 150 50 L130 50 Z M140 50 L150 50 Q157 50 160 55 Q163 60 163 67.5 Q163 75 160 80 Q157 85 150 85 L140 85 Z M140 50 L140 67.5 L150 67.5 Q155 67.5 157.5 65 Q160 62.5 160 67.5 Q160 72.5 157.5 75 Q155 77.5 150 77.5 L140 77.5 Z" fill="#FFD700"/>
</svg>
