<svg width="58" height="58" viewBox="0 0 58 58" fill="none" xmlns="http://www.w3.org/2000/svg">
<g clip-path="url(#clip0_strategy)">
<path d="M29 12C25.134 12 22 15.134 22 19C22 22.866 25.134 26 29 26C32.866 26 36 22.866 36 19C36 15.134 32.866 12 29 12Z" fill="url(#paint0_strategy)"/>
<path d="M29 26C26.7909 26 25 27.7909 25 30V38C25 40.2091 26.7909 42 29 42C31.2091 42 33 40.2091 33 38V30C33 27.7909 31.2091 26 29 26Z" fill="url(#paint1_strategy)"/>
<path d="M12 25C12 24.4477 12.4477 24 13 24C13.5523 24 14 24.4477 14 25C14 25.5523 13.5523 26 13 26C12.4477 26 12 25.5523 12 25Z" fill="url(#paint2_strategy)"/>
<path d="M44 25C44 24.4477 44.4477 24 45 24C45.5523 24 46 24.4477 46 25C46 25.5523 45.5523 26 45 26C44.4477 26 44 25.5523 44 25Z" fill="url(#paint3_strategy)"/>
<path d="M10 22C10.5523 22 11 21.5523 11 21C11 20.4477 10.5523 20 10 20C9.44772 20 9 20.4477 9 21C9 21.5523 9.44772 22 10 22Z" fill="url(#paint4_strategy)"/>
<path d="M48 22C48.5523 22 49 21.5523 49 21C49 20.4477 48.5523 20 48 20C47.4477 20 47 20.4477 47 21C47 21.5523 47.4477 22 48 22Z" fill="url(#paint5_strategy)"/>
<path d="M8 28C8.55228 28 9 27.5523 9 27C9 26.4477 8.55228 26 8 26C7.44772 26 7 26.4477 7 27C7 27.5523 7.44772 28 8 28Z" fill="url(#paint6_strategy)"/>
<path d="M50 28C50.5523 28 51 27.5523 51 27C51 26.4477 50.5523 26 50 26C49.4477 26 49 26.4477 49 27C49 27.5523 49.4477 28 50 28Z" fill="url(#paint7_strategy)"/>
<path d="M6 34C6.55228 34 7 33.5523 7 33C7 32.4477 6.55228 32 6 32C5.44772 32 5 32.4477 5 33C5 33.5523 5.44772 34 6 34Z" fill="url(#paint8_strategy)"/>
<path d="M52 34C52.5523 34 53 33.5523 53 33C53 32.4477 52.5523 32 52 32C51.4477 32 51 32.4477 51 33C51 33.5523 51.4477 34 52 34Z" fill="url(#paint9_strategy)"/>
</g>
<defs>
<linearGradient id="paint0_strategy" x1="22" y1="12" x2="36" y2="26" gradientUnits="userSpaceOnUse">
<stop stop-color="#00FF97"/>
<stop offset="0.703125" stop-color="#2C32FE"/>
</linearGradient>
<linearGradient id="paint1_strategy" x1="25" y1="26" x2="33" y2="42" gradientUnits="userSpaceOnUse">
<stop stop-color="#00FF97"/>
<stop offset="0.703125" stop-color="#2C32FE"/>
</linearGradient>
<linearGradient id="paint2_strategy" x1="12" y1="24" x2="14" y2="26" gradientUnits="userSpaceOnUse">
<stop stop-color="#87FFE1"/>
<stop offset="0.776042" stop-color="#5C6DFF"/>
</linearGradient>
<linearGradient id="paint3_strategy" x1="44" y1="24" x2="46" y2="26" gradientUnits="userSpaceOnUse">
<stop stop-color="#87FFE1"/>
<stop offset="0.776042" stop-color="#5C6DFF"/>
</linearGradient>
<linearGradient id="paint4_strategy" x1="9" y1="20" x2="11" y2="22" gradientUnits="userSpaceOnUse">
<stop stop-color="#3CDEB6"/>
<stop offset="0.65625" stop-color="#364AFF"/>
</linearGradient>
<linearGradient id="paint5_strategy" x1="47" y1="20" x2="49" y2="22" gradientUnits="userSpaceOnUse">
<stop stop-color="#3CDEB6"/>
<stop offset="0.65625" stop-color="#364AFF"/>
</linearGradient>
<linearGradient id="paint6_strategy" x1="7" y1="26" x2="9" y2="28" gradientUnits="userSpaceOnUse">
<stop stop-color="#3CDEB6"/>
<stop offset="0.65625" stop-color="#364AFF"/>
</linearGradient>
<linearGradient id="paint7_strategy" x1="49" y1="26" x2="51" y2="28" gradientUnits="userSpaceOnUse">
<stop stop-color="#3CDEB6"/>
<stop offset="0.65625" stop-color="#364AFF"/>
</linearGradient>
<linearGradient id="paint8_strategy" x1="5" y1="32" x2="7" y2="34" gradientUnits="userSpaceOnUse">
<stop stop-color="#3CDEB6"/>
<stop offset="0.65625" stop-color="#364AFF"/>
</linearGradient>
<linearGradient id="paint9_strategy" x1="51" y1="32" x2="53" y2="34" gradientUnits="userSpaceOnUse">
<stop stop-color="#3CDEB6"/>
<stop offset="0.65625" stop-color="#364AFF"/>
</linearGradient>
<clipPath id="clip0_strategy">
<rect width="58" height="58" fill="white"/>
</clipPath>
</defs>
</svg>
