<svg width="58" height="58" viewBox="0 0 58 58" fill="none" xmlns="http://www.w3.org/2000/svg">
<g clip-path="url(#clip0_assistance)">
<path d="M8 30C8 25.5817 11.5817 22 16 22C20.4183 22 24 25.5817 24 30C24 34.4183 20.4183 38 16 38C11.5817 38 8 34.4183 8 30Z" fill="url(#paint0_assistance)"/>
<path d="M34 30C34 25.5817 37.5817 22 42 22C46.4183 22 50 25.5817 50 30C50 34.4183 46.4183 38 42 38C37.5817 38 34 34.4183 34 30Z" fill="url(#paint1_assistance)"/>
<path d="M16 30C16 28.8954 16.8954 28 18 28H20C21.1046 28 22 28.8954 22 30C22 31.1046 21.1046 32 20 32H18C16.8954 32 16 31.1046 16 30Z" fill="url(#paint2_assistance)"/>
<path d="M36 30C36 28.8954 36.8954 28 38 28H40C41.1046 28 42 28.8954 42 30C42 31.1046 41.1046 32 40 32H38C36.8954 32 36 31.1046 36 30Z" fill="url(#paint3_assistance)"/>
<path d="M12 20C12 19.4477 12.4477 19 13 19H15C15.5523 19 16 19.4477 16 20C16 20.5523 15.5523 21 15 21H13C12.4477 21 12 20.5523 12 20Z" fill="url(#paint4_assistance)"/>
<path d="M42 20C42 19.4477 42.4477 19 43 19H45C45.5523 19 46 19.4477 46 20C46 20.5523 45.5523 21 45 21H43C42.4477 21 42 20.5523 42 20Z" fill="url(#paint5_assistance)"/>
<path d="M12 40C12 39.4477 12.4477 39 13 39H15C15.5523 39 16 39.4477 16 40C16 40.5523 15.5523 41 15 41H13C12.4477 41 12 40.5523 12 40Z" fill="url(#paint6_assistance)"/>
<path d="M42 40C42 39.4477 42.4477 39 43 39H45C45.5523 39 46 39.4477 46 40C46 40.5523 45.5523 41 45 41H43C42.4477 41 42 40.5523 42 40Z" fill="url(#paint7_assistance)"/>
<path d="M20 18C20 17.4477 20.4477 17 21 17H23C23.5523 17 24 17.4477 24 18C24 18.5523 23.5523 19 23 19H21C20.4477 19 20 18.5523 20 18Z" fill="url(#paint8_assistance)"/>
<path d="M34 18C34 17.4477 34.4477 17 35 17H37C37.5523 17 38 17.4477 38 18C38 18.5523 37.5523 19 37 19H35C34.4477 19 34 18.5523 34 18Z" fill="url(#paint9_assistance)"/>
<path d="M20 42C20 41.4477 20.4477 41 21 41H23C23.5523 41 24 41.4477 24 42C24 42.5523 23.5523 43 23 43H21C20.4477 43 20 42.5523 20 42Z" fill="url(#paint10_assistance)"/>
<path d="M34 42C34 41.4477 34.4477 41 35 41H37C37.5523 41 38 41.4477 38 42C38 42.5523 37.5523 43 37 43H35C34.4477 43 34 42.5523 34 42Z" fill="url(#paint11_assistance)"/>
</g>
<defs>
<linearGradient id="paint0_assistance" x1="8" y1="22" x2="24" y2="38" gradientUnits="userSpaceOnUse">
<stop stop-color="#00FF97"/>
<stop offset="0.703125" stop-color="#2C32FE"/>
</linearGradient>
<linearGradient id="paint1_assistance" x1="34" y1="22" x2="50" y2="38" gradientUnits="userSpaceOnUse">
<stop stop-color="#00FF97"/>
<stop offset="0.703125" stop-color="#2C32FE"/>
</linearGradient>
<linearGradient id="paint2_assistance" x1="16" y1="28" x2="22" y2="32" gradientUnits="userSpaceOnUse">
<stop stop-color="#87FFE1"/>
<stop offset="0.776042" stop-color="#5C6DFF"/>
</linearGradient>
<linearGradient id="paint3_assistance" x1="36" y1="28" x2="42" y2="32" gradientUnits="userSpaceOnUse">
<stop stop-color="#87FFE1"/>
<stop offset="0.776042" stop-color="#5C6DFF"/>
</linearGradient>
<linearGradient id="paint4_assistance" x1="12" y1="19" x2="16" y2="21" gradientUnits="userSpaceOnUse">
<stop stop-color="#3CDEB6"/>
<stop offset="0.65625" stop-color="#364AFF"/>
</linearGradient>
<linearGradient id="paint5_assistance" x1="42" y1="19" x2="46" y2="21" gradientUnits="userSpaceOnUse">
<stop stop-color="#3CDEB6"/>
<stop offset="0.65625" stop-color="#364AFF"/>
</linearGradient>
<linearGradient id="paint6_assistance" x1="12" y1="39" x2="16" y2="41" gradientUnits="userSpaceOnUse">
<stop stop-color="#3CDEB6"/>
<stop offset="0.65625" stop-color="#364AFF"/>
</linearGradient>
<linearGradient id="paint7_assistance" x1="42" y1="39" x2="46" y2="41" gradientUnits="userSpaceOnUse">
<stop stop-color="#3CDEB6"/>
<stop offset="0.65625" stop-color="#364AFF"/>
</linearGradient>
<linearGradient id="paint8_assistance" x1="20" y1="17" x2="24" y2="19" gradientUnits="userSpaceOnUse">
<stop stop-color="#3CDEB6"/>
<stop offset="0.65625" stop-color="#364AFF"/>
</linearGradient>
<linearGradient id="paint9_assistance" x1="34" y1="17" x2="38" y2="19" gradientUnits="userSpaceOnUse">
<stop stop-color="#3CDEB6"/>
<stop offset="0.65625" stop-color="#364AFF"/>
</linearGradient>
<linearGradient id="paint10_assistance" x1="20" y1="41" x2="24" y2="43" gradientUnits="userSpaceOnUse">
<stop stop-color="#3CDEB6"/>
<stop offset="0.65625" stop-color="#364AFF"/>
</linearGradient>
<linearGradient id="paint11_assistance" x1="34" y1="41" x2="38" y2="43" gradientUnits="userSpaceOnUse">
<stop stop-color="#3CDEB6"/>
<stop offset="0.65625" stop-color="#364AFF"/>
</linearGradient>
<clipPath id="clip0_assistance">
<rect width="58" height="58" fill="white"/>
</clipPath>
</defs>
</svg>
