<svg width="58" height="58" viewBox="0 0 58 58" fill="none" xmlns="http://www.w3.org/2000/svg">
<g clip-path="url(#clip0_profile)">
<path d="M29 12C25.134 12 22 15.134 22 19C22 22.866 25.134 26 29 26C32.866 26 36 22.866 36 19C36 15.134 32.866 12 29 12Z" fill="url(#paint0_profile)"/>
<path d="M29 26C26.7909 26 25 27.7909 25 30V38C25 40.2091 26.7909 42 29 42C31.2091 42 33 40.2091 33 38V30C33 27.7909 31.2091 26 29 26Z" fill="url(#paint1_profile)"/>
<path d="M15 38C15 36.3431 16.3431 35 18 35H40C41.6569 35 43 36.3431 43 38V46C43 47.6569 41.6569 49 40 49H18C16.3431 49 15 47.6569 15 46V38Z" fill="url(#paint2_profile)"/>
<path d="M18 40H40V44H18V40Z" fill="url(#paint3_profile)"/>
<path d="M20 42H38V43H20V42Z" fill="url(#paint4_profile)"/>
<path d="M22 35C22 34.4477 22.4477 34 23 34H25C25.5523 34 26 34.4477 26 35C26 35.5523 25.5523 36 25 36H23C22.4477 36 22 35.5523 22 35Z" fill="url(#paint5_profile)"/>
<path d="M32 35C32 34.4477 32.4477 34 33 34H35C35.5523 34 36 34.4477 36 35C36 35.5523 35.5523 36 35 36H33C32.4477 36 32 35.5523 32 35Z" fill="url(#paint6_profile)"/>
</g>
<defs>
<linearGradient id="paint0_profile" x1="22" y1="12" x2="36" y2="26" gradientUnits="userSpaceOnUse">
<stop stop-color="#00FF97"/>
<stop offset="0.703125" stop-color="#2C32FE"/>
</linearGradient>
<linearGradient id="paint1_profile" x1="25" y1="26" x2="33" y2="42" gradientUnits="userSpaceOnUse">
<stop stop-color="#00FF97"/>
<stop offset="0.703125" stop-color="#2C32FE"/>
</linearGradient>
<linearGradient id="paint2_profile" x1="15" y1="35" x2="43" y2="49" gradientUnits="userSpaceOnUse">
<stop stop-color="#00FF97"/>
<stop offset="0.703125" stop-color="#2C32FE"/>
</linearGradient>
<linearGradient id="paint3_profile" x1="18" y1="40" x2="40" y2="44" gradientUnits="userSpaceOnUse">
<stop stop-color="#87FFE1"/>
<stop offset="0.776042" stop-color="#5C6DFF"/>
</linearGradient>
<linearGradient id="paint4_profile" x1="20" y1="42" x2="38" y2="43" gradientUnits="userSpaceOnUse">
<stop stop-color="#87FFE1"/>
<stop offset="0.776042" stop-color="#5C6DFF"/>
</linearGradient>
<linearGradient id="paint5_profile" x1="22" y1="34" x2="26" y2="36" gradientUnits="userSpaceOnUse">
<stop stop-color="#3CDEB6"/>
<stop offset="0.65625" stop-color="#364AFF"/>
</linearGradient>
<linearGradient id="paint6_profile" x1="32" y1="34" x2="36" y2="36" gradientUnits="userSpaceOnUse">
<stop stop-color="#3CDEB6"/>
<stop offset="0.65625" stop-color="#364AFF"/>
</linearGradient>
<clipPath id="clip0_profile">
<rect width="58" height="58" fill="white"/>
</clipPath>
</defs>
</svg>
