<svg width="32" height="40" viewBox="0 0 32 40" fill="none" xmlns="http://www.w3.org/2000/svg">
<g clip-path="url(#clip0_2272_4037)">
<mask id="mask0_2272_4037" style="mask-type:luminance" maskUnits="userSpaceOnUse" x="0" y="0" width="33" height="40">
<path d="M30.6036 7.9054L17.3814 0.415754C16.5236 -0.0719446 15.4656 -0.0719446 14.6079 0.415754L1.38343 7.9054C0.527118 8.39437 3.05176e-05 9.29336 3.05176e-05 10.2658V25.2561C0.00078599 26.2267 0.527849 27.1234 1.38343 27.6099L7.99902 31.3635V39.0166C8.00016 39.3079 8.15925 39.5766 8.41655 39.7217C8.67385 39.8669 8.99044 39.8666 9.24745 39.721L30.6171 27.6165C31.4737 27.1311 32.0011 26.2337 32.0005 25.2628V10.2636C31.9953 9.28958 31.4634 8.39161 30.6036 7.9054Z" fill="white"/>
</mask>
<g mask="url(#mask0_2272_4037)">
<path d="M31.987 8.69588L15.998 17.7599L3.05176e-05 8.69588V26.8238L7.99902 31.3525V40.4187L31.987 26.8238V8.69588Z" fill="#EF6C00"/>
</g>
<mask id="mask1_2272_4037" style="mask-type:luminance" maskUnits="userSpaceOnUse" x="0" y="0" width="33" height="40">
<path d="M30.6036 7.9054L17.3814 0.415754C16.5236 -0.0719446 15.4656 -0.0719446 14.6079 0.415754L1.38343 7.9054C0.527118 8.39437 3.05176e-05 9.29336 3.05176e-05 10.2658V25.2561C0.00078599 26.2267 0.527849 27.1234 1.38343 27.6099L7.99902 31.3635V39.0166C8.00016 39.3079 8.15925 39.5766 8.41655 39.7217C8.67385 39.8669 8.99044 39.8666 9.24745 39.721L30.6171 27.6165C31.4737 27.1311 32.0011 26.2337 32.0005 25.2628V10.2636C31.9953 9.28958 31.4634 8.39161 30.6036 7.9054Z" fill="white"/>
</mask>
<g mask="url(#mask1_2272_4037)">
<path d="M15.998 17.7599L3.05176e-05 8.69588L15.998 -0.368095L31.987 8.69588L15.998 17.7599Z" fill="#FF9800"/>
</g>
<mask id="mask2_2272_4037" style="mask-type:luminance" maskUnits="userSpaceOnUse" x="0" y="0" width="33" height="40">
<path d="M30.6036 7.9054L17.3814 0.415754C16.5236 -0.0719446 15.4656 -0.0719446 14.6079 0.415754L1.38343 7.9054C0.527118 8.39437 3.05176e-05 9.29336 3.05176e-05 10.2658V25.2561C0.00078599 26.2267 0.527849 27.1234 1.38343 27.6099L7.99902 31.3635V39.0166C8.00016 39.3079 8.15925 39.5766 8.41655 39.7217C8.67385 39.8669 8.99044 39.8666 9.24745 39.721L30.6171 27.6165C31.4737 27.1311 32.0011 26.2337 32.0005 25.2628V10.2636C31.9953 9.28958 31.4634 8.39161 30.6036 7.9054Z" fill="white"/>
</mask>
<g mask="url(#mask2_2272_4037)">
<path d="M15.7146 17.4839L0.101255 8.63626L3.05176e-05 8.69588L15.998 17.7599L31.987 8.69588L31.6113 8.47728L15.7146 17.4839Z" fill="#FF9800"/>
</g>
<mask id="mask3_2272_4037" style="mask-type:luminance" maskUnits="userSpaceOnUse" x="0" y="0" width="33" height="40">
<path d="M30.6036 7.9054L17.3814 0.415754C16.5236 -0.0719446 15.4656 -0.0719446 14.6079 0.415754L1.38343 7.9054C0.527118 8.39437 3.05176e-05 9.29336 3.05176e-05 10.2658V25.2561C0.00078599 26.2267 0.527849 27.1234 1.38343 27.6099L7.99902 31.3635V39.0166C8.00016 39.3079 8.15925 39.5766 8.41655 39.7217C8.67385 39.8669 8.99044 39.8666 9.24745 39.721L30.6171 27.6165C31.4737 27.1311 32.0011 26.2337 32.0005 25.2628V10.2636C31.9953 9.28958 31.4634 8.39161 30.6036 7.9054Z" fill="white"/>
</mask>
<g mask="url(#mask3_2272_4037)">
<path d="M15.998 17.8725V17.7599L0.101255 8.74887L3.05176e-05 8.80849L15.998 17.8725Z" fill="#FF9800"/>
</g>
</g>
<defs>
<clipPath id="clip0_2272_4037">
<rect width="32" height="40" fill="white"/>
</clipPath>
</defs>
</svg>
