<svg width="36" height="36" viewBox="0 0 36 36" fill="none" xmlns="http://www.w3.org/2000/svg">
<g clip-path="url(#clip0_2272_4203)">
<path d="M15.863 35.977C12.4933 35.7341 9.16266 34.8859 7.12004 33.7503C5.95656 33.1036 5.07015 32.3087 4.72232 31.6003L4.51537 31.1787V17.9575V4.73616L4.67912 4.40365C5.41094 2.91788 7.74648 1.57845 11.0068 0.774776C12.1135 0.501947 13.7112 0.230252 15.0146 0.0932467C16.3456 -0.0466904 19.8734 -0.0254 21.2011 0.130789C24.7297 0.545354 27.7323 1.47346 29.5827 2.72158C30.2963 3.2029 31.0286 3.97306 31.2766 4.50319L31.4893 4.95771L31.4711 18.139L31.4529 31.3204L31.2822 31.6672C31.1883 31.858 30.9047 32.2333 30.6519 32.5012C29.1133 34.1322 25.8129 35.3388 21.4839 35.8529C20.6016 35.9577 16.7683 36.0422 15.863 35.977ZM22.0731 24.6481C22.0601 24.6143 21.5563 24.1655 20.9536 23.6508C20.3509 23.136 19.8318 22.6907 19.8 22.6611C19.7683 22.6315 19.8796 22.5269 20.0475 22.4285C20.2153 22.3301 20.5369 22.0564 20.7621 21.8202C21.4206 21.1297 21.7313 20.2767 21.7313 19.1594C21.7313 18.0594 21.3962 17.172 20.725 16.4945C20.0486 15.8116 19.2719 15.5182 18.1408 15.5182C16.3973 15.5182 15.0584 16.5355 14.631 18.1848C14.484 18.7521 14.4848 19.8985 14.6325 20.4015C15.0179 21.7136 16.0676 22.6666 17.374 22.8904C17.8161 22.9661 17.8759 22.9987 18.1773 23.3283C18.3565 23.5241 18.724 23.915 18.9942 24.1969L19.4853 24.7095H20.791C21.5091 24.7095 22.086 24.6819 22.0731 24.6481ZM17.5954 20.9923C17.2811 20.8284 17.1622 20.7012 16.983 20.3368C16.8446 20.0554 16.8209 19.8953 16.8193 19.2301C16.8178 18.5542 16.8393 18.4081 16.9838 18.1146C17.2203 17.6343 17.5462 17.407 18.0504 17.3705C18.7522 17.3196 19.1572 17.664 19.3695 18.4917C19.6298 19.5065 19.3436 20.5854 18.7191 20.9434C18.3914 21.1313 17.9027 21.1526 17.5954 20.9923ZM11.8081 22.876C13.177 22.6164 13.9541 21.8203 13.9541 20.6775C13.9541 19.6636 13.4524 19.0728 12.0658 18.4538C11.2721 18.0995 10.9846 17.8771 10.9846 17.6172C10.9846 17.4018 11.2574 17.1658 11.5751 17.1065C11.8852 17.0486 12.7077 17.1915 13.1934 17.3877L13.6006 17.5522V16.6509V15.7496L13.1587 15.6516C12.8856 15.591 12.3117 15.5547 11.6563 15.5565C10.7278 15.5565 10.546 15.5792 10.1966 15.7179C9.17607 16.1231 8.69178 16.8132 8.69952 17.8514C8.70678 18.8233 9.2195 19.4296 10.4955 19.975C11.2484 20.2968 11.5502 20.5418 11.5502 20.8314C11.5502 21.4467 10.5249 21.5224 9.43941 20.9873C9.14212 20.8407 8.87503 20.7088 8.84586 20.6942C8.8167 20.6796 8.79285 21.1006 8.79285 21.6298C8.79285 22.5876 8.79386 22.5922 8.96728 22.6583C9.62031 22.9065 11.0636 23.0172 11.8081 22.876ZM27.4582 21.9875V21.1744H26.2209H24.9836V18.3817V15.5889H23.8877H22.7919V19.1947V22.8005H25.125H27.4582V21.9875ZM19.8224 7.73917C22.0001 7.58812 23.6325 7.30295 25.069 6.82266C26.5001 6.34416 27.3454 5.76519 27.5345 5.13406C27.6074 4.89085 27.6022 4.7986 27.5004 4.53194C27.0438 3.33649 24.4934 2.41801 20.5961 2.04561C18.929 1.88629 15.8972 1.93794 14.3077 2.15265C11.8823 2.48035 9.91398 3.08905 9.03878 3.78205C7.26835 5.18399 9.14059 6.72594 13.4946 7.4517C15.3824 7.76639 17.8283 7.87751 19.8224 7.73917Z" fill="#00BCF2"/>
</g>
<defs>
<clipPath id="clip0_2272_4203">
<rect width="36" height="36" fill="white"/>
</clipPath>
</defs>
</svg>
