<svg width="36" height="36" viewBox="0 0 36 36" fill="none" xmlns="http://www.w3.org/2000/svg">
<path d="M14.468 12.6713C11.8135 11.1387 10.5193 8.01422 11.3127 5.05349C12.106 2.09276 14.789 0.0339966 17.8542 0.0339966C20.9194 0.0339966 23.6024 2.09276 24.3957 5.05349C25.189 8.01422 23.8948 11.1387 21.2403 12.6713L19.2013 9.13955C20.2573 8.52984 20.7722 7.28684 20.4566 6.10897C20.141 4.9311 19.0736 4.11207 17.8542 4.11207C16.6348 4.11207 15.5674 4.9311 15.2518 6.10897C14.9362 7.28684 15.451 8.52984 16.5071 9.13955L14.468 12.6713Z" fill="#FF0101"/>
<path d="M28.9703 14.3108C31.6248 15.8434 32.919 18.9678 32.1257 21.9286C31.3324 24.8893 28.6494 26.9481 25.5842 26.9481C22.519 26.9481 19.836 24.8893 19.0426 21.9286C18.2493 18.9678 19.5435 15.8434 22.198 14.3108L24.2371 17.8425C23.181 18.4522 22.6662 19.6952 22.9818 20.8731C23.2974 22.051 24.3648 22.87 25.5842 22.87C26.8036 22.87 27.871 22.051 28.1866 20.8731C28.5022 19.6952 27.9873 18.4522 26.9313 17.8425L28.9703 14.3108Z" fill="#0101FF"/>
<path d="M17.0423 20.1758C17.0423 23.2409 14.9836 25.924 12.0228 26.7173C9.0621 27.5106 5.93765 26.2164 4.40506 23.5619C2.87247 20.9074 3.3139 17.5544 5.48131 15.387C7.64871 13.2196 11.0017 12.7782 13.6562 14.3108L11.6171 17.8425C10.5611 17.2328 9.2272 17.4084 8.36494 18.2707C7.50268 19.1329 7.32707 20.4668 7.93678 21.5229C8.54649 22.5789 9.78949 23.0938 10.9674 22.7782C12.1452 22.4626 12.9643 21.3952 12.9643 20.1758H17.0423Z" fill="#01FF01"/>
<path d="M5.43174 28.5718C6.00493 28.5203 6.58444 28.5208 7.1547 28.6025C7.5062 28.6647 7.87909 28.7556 8.14307 29.0118C8.4197 29.3205 8.48776 29.7493 8.54853 30.1446C8.6482 30.9647 8.63653 31.7965 8.54853 32.6172C8.48971 33.0178 8.43186 33.4505 8.16933 33.7762C7.88298 34.0669 7.46002 34.1496 7.07206 34.2108C6.49936 34.2823 5.91839 34.2988 5.34326 34.2415C4.95384 34.2016 4.54741 34.133 4.21585 33.9109C4.00145 33.7747 3.88623 33.5346 3.80796 33.3017C3.65093 32.8165 3.63099 32.3012 3.6096 31.7956C3.60717 31.1276 3.61981 30.4528 3.7501 29.7955C3.8206 29.4887 3.90616 29.1513 4.16529 28.9467C4.5304 28.6817 4.99468 28.6175 5.43174 28.5718ZM5.52654 29.4873C5.28541 29.5237 4.98496 29.5437 4.8396 29.7683C4.71271 30.1032 4.71708 30.4688 4.69132 30.8213C4.67916 31.4499 4.64756 32.0844 4.74479 32.7081C4.78077 32.9186 4.85467 33.1695 5.08851 33.2312C5.59558 33.3863 6.13814 33.36 6.66076 33.3304C6.92135 33.2905 7.26701 33.2682 7.3939 32.9954C7.53926 32.5802 7.52905 32.132 7.54704 31.6983C7.5412 31.0887 7.57524 30.4674 7.42939 29.8709C7.39438 29.6589 7.17464 29.5685 6.98844 29.531C6.50811 29.4367 6.01222 29.4484 5.52654 29.4873ZM10.6478 30.4717C10.9959 30.2505 11.4281 30.2146 11.8296 30.251C12.2045 30.2831 12.6206 30.4105 12.8214 30.7557C13.0611 31.1888 13.0747 31.7008 13.0912 32.184C13.0805 32.6809 13.0713 33.1996 12.8661 33.6615C12.749 33.942 12.4796 34.1258 12.1914 34.1982C11.7499 34.3066 11.2647 34.3183 10.8393 34.1423C10.6094 34.0523 10.4504 33.8569 10.3187 33.6566V35.9275H9.34633C9.34681 34.048 9.34536 32.168 9.34681 30.2885C9.66136 30.287 9.97591 30.287 10.29 30.2885C10.2793 30.482 10.2686 30.675 10.2632 30.8689C10.3799 30.7265 10.4883 30.57 10.6478 30.4717ZM10.9643 30.9793C10.7329 30.9973 10.481 31.112 10.4154 31.3541C10.2914 31.781 10.3133 32.2331 10.3313 32.6726C10.3614 32.959 10.3969 33.328 10.7018 33.4563C11.0294 33.5832 11.4077 33.5764 11.7392 33.468C12.0261 33.3669 12.0679 33.0295 12.098 32.7689C12.1282 32.3372 12.1388 31.8967 12.0543 31.4703C12.0256 31.305 11.9405 31.1344 11.7791 31.0649C11.5243 30.9526 11.2365 30.9584 10.9643 30.9793ZM14.2546 30.479C14.7325 30.2335 15.2921 30.2248 15.8167 30.2496C16.2532 30.286 16.7832 30.359 17.0238 30.7766C17.2951 31.2807 17.2509 31.8738 17.2888 32.4271H14.629C14.6601 32.7125 14.6231 33.0202 14.767 33.2818C14.89 33.4884 15.1511 33.5307 15.3718 33.5428C15.6446 33.5448 15.9382 33.5672 16.1896 33.4403C16.3335 33.3275 16.3344 33.1272 16.3529 32.9619C16.6641 32.9614 16.9752 32.9614 17.2863 32.9619C17.2747 33.2866 17.2329 33.6503 16.9723 33.8788C16.5809 34.2298 16.0209 34.2663 15.5201 34.276C15.0782 34.2629 14.6115 34.2405 14.2157 34.0227C13.8954 33.8336 13.7933 33.4451 13.7369 33.1029C13.6654 32.5943 13.6474 32.0761 13.7082 31.5656C13.7578 31.1626 13.8662 30.6886 14.2546 30.479ZM14.823 31.0979C14.6197 31.2832 14.6397 31.5904 14.6309 31.8422C15.2026 31.8452 15.7744 31.8437 16.3466 31.8427C16.3456 31.6162 16.3675 31.3692 16.245 31.1675C16.1249 31.0041 15.8998 30.9934 15.7151 30.9735C15.417 30.9691 15.0884 30.9365 14.823 31.0979ZM19.3593 30.4766C19.6958 30.2433 20.1304 30.2107 20.5261 30.2564C20.863 30.2919 21.2199 30.4202 21.4187 30.7109C21.5952 30.9521 21.6443 31.2593 21.6467 31.5515C21.6453 32.4431 21.6472 33.3343 21.6463 34.2259C21.338 34.2264 21.0303 34.2264 20.723 34.2259C20.7216 33.3824 20.724 32.5394 20.7216 31.6964C20.7123 31.5121 20.7196 31.2992 20.5811 31.1572C20.4333 30.9973 20.2014 30.9662 19.9948 30.9676C19.7449 30.9662 19.4746 31.009 19.282 31.1815C19.0939 31.342 19.0224 31.6006 19.0215 31.8398C19.02 32.6352 19.0219 33.4305 19.0205 34.2254C18.7127 34.2264 18.405 34.2264 18.0978 34.2259C18.0973 32.9133 18.0973 31.6006 18.0978 30.288C18.4001 30.287 18.703 30.2875 19.0054 30.288C19.004 30.5184 18.9811 30.7474 18.9743 30.9778C19.0735 30.7916 19.1775 30.5952 19.3593 30.4766ZM23.3182 28.7517C23.8277 28.5806 24.3707 28.5563 24.9035 28.5373C25.4199 28.5397 25.9595 28.5446 26.4418 28.7527C26.6868 28.8548 26.8565 29.0784 26.9391 29.3254C27.0738 29.6944 27.0777 30.094 27.0806 30.4824C26.7252 30.4824 26.3698 30.4834 26.0149 30.482C26.0091 30.2087 26.03 29.9025 25.8608 29.6701C25.6897 29.495 25.4223 29.4955 25.1952 29.4688C24.7334 29.46 24.2526 29.4304 23.8102 29.5898C23.6507 29.6404 23.5681 29.7999 23.536 29.9535C23.4451 30.3658 23.4446 30.7912 23.4451 31.2117C23.4504 31.7737 23.4417 32.344 23.5617 32.8967C23.5933 33.099 23.7795 33.2234 23.9662 33.2682C24.3979 33.3756 24.8486 33.36 25.2896 33.3338C25.5195 33.3036 25.7995 33.2886 25.9439 33.0776C26.0981 32.8258 26.0723 32.5161 26.064 32.2331C26.4228 32.2317 26.7811 32.2321 27.1399 32.2331C27.1355 32.6799 27.1277 33.1413 26.9654 33.5642C26.8817 33.7854 26.7092 33.9731 26.4855 34.0577C26.0465 34.2337 25.5652 34.2449 25.0995 34.2731C24.5593 34.2823 24.0124 34.2692 23.4844 34.1433C23.1748 34.0626 22.8364 33.9206 22.693 33.6129C22.5097 33.2059 22.4761 32.7533 22.429 32.3153C22.3896 31.7367 22.3643 31.1572 22.3784 30.5777C22.4061 30.1086 22.4489 29.6142 22.7022 29.2053C22.8369 28.9778 23.0731 28.8353 23.3182 28.7517ZM27.3149 28.5879C27.6854 28.5884 28.0558 28.5777 28.4258 28.5932C28.786 29.7362 29.1818 30.8675 29.5454 32.009C29.6869 32.4475 29.7871 32.8987 29.9334 33.3357C30.0972 32.8642 30.2022 32.3741 30.3627 31.9016C30.7181 30.7975 31.0832 29.6968 31.4381 28.5927C31.8037 28.5772 32.1702 28.5908 32.5363 28.5859V28.707C31.9344 30.5413 31.3467 32.3804 30.757 34.2191C30.2066 34.2303 29.6553 34.2317 29.105 34.2181C28.5187 32.3381 27.9041 30.4669 27.3149 28.5879Z" fill="#050505"/>
</svg>
