<svg width="38" height="38" viewBox="0 0 38 38" fill="none" xmlns="http://www.w3.org/2000/svg">
<path d="M35.2798 15.5501C35.7047 14.2705 35.8517 12.9151 35.7108 11.5742C35.57 10.2334 35.1447 8.938 34.4633 7.77464C33.4531 6.01623 31.9106 4.62406 30.0581 3.79883C28.2057 2.9736 26.139 2.75795 24.1561 3.18298C23.0296 1.92987 21.5932 0.995238 19.9911 0.472961C18.389 -0.0493158 16.6778 -0.140854 15.0291 0.207542C13.3805 0.555937 11.8526 1.332 10.5988 2.45778C9.34498 3.58357 8.40949 5.01944 7.88626 6.62118C6.56523 6.89207 5.31723 7.4418 4.22568 8.23364C3.13412 9.02547 2.22415 10.0412 1.55657 11.2128C0.535372 12.9683 0.09892 15.0031 0.310311 17.023C0.521701 19.0428 1.36998 20.9431 2.73251 22.4491C2.30606 23.728 2.15764 25.0833 2.29717 26.4242C2.4367 27.7651 2.86097 29.0607 3.54159 30.2244C4.55309 31.9835 6.09696 33.376 7.95071 34.2012C9.80447 35.0264 11.8724 35.2418 13.8564 34.8162C14.7514 35.8241 15.8511 36.6294 17.0821 37.1785C18.3131 37.7275 19.6471 38.0076 20.995 38C23.0274 38.0019 25.0079 37.3579 26.6505 36.1609C28.293 34.964 29.5128 33.2761 30.1337 31.3408C31.4545 31.0695 32.7024 30.5195 33.7939 29.7277C34.8853 28.9359 35.7954 27.9204 36.4634 26.749C37.4725 24.9961 37.9014 22.969 37.6889 20.9576C37.4763 18.9461 36.6331 17.0533 35.2798 15.5501ZM20.995 35.5129C19.3305 35.5155 17.7181 34.9321 16.4407 33.865L16.6654 33.7377L24.231 29.3705C24.4193 29.2601 24.5756 29.1026 24.6847 28.9134C24.7937 28.7243 24.8516 28.5101 24.8528 28.2918V17.625L28.0511 19.4753C28.0669 19.4833 28.0806 19.495 28.0911 19.5093C28.1015 19.5236 28.1085 19.5402 28.1113 19.5576V28.3968C28.1073 30.2829 27.3562 32.0906 26.0225 33.4242C24.6888 34.7579 22.8811 35.5089 20.995 35.5129ZM5.69888 28.981C4.86411 27.5396 4.56438 25.8499 4.85243 24.2093L5.07727 24.3442L12.6503 28.7114C12.8377 28.8213 13.0511 28.8793 13.2683 28.8793C13.4856 28.8793 13.6989 28.8213 13.8863 28.7114L23.1374 23.3779V27.0709C23.1365 27.09 23.1314 27.1087 23.1222 27.1256C23.1131 27.1424 23.1004 27.157 23.0848 27.1683L15.4218 31.5878C13.7864 32.5299 11.844 32.7845 10.0211 32.2958C8.19813 31.807 6.64363 30.6149 5.69888 28.981ZM3.70642 12.5014C4.54698 11.0507 5.87373 9.94417 7.45179 9.37777V18.3667C7.44894 18.5838 7.50443 18.7978 7.61246 18.9862C7.72049 19.1746 7.87711 19.3306 8.06597 19.4378L17.2721 24.7488L14.0736 26.5989C14.0563 26.6081 14.037 26.6129 14.0174 26.6129C13.9978 26.6129 13.9785 26.6081 13.9612 26.5989L6.31322 22.1869C4.6809 21.2408 3.49005 19.6863 3.00146 17.8639C2.51287 16.0416 2.76636 14.0999 3.70642 12.464V12.5014ZM29.9839 18.6064L20.7478 13.243L23.9389 11.4C23.9562 11.3908 23.9755 11.386 23.9951 11.386C24.0147 11.386 24.034 11.3908 24.0513 11.4L31.6993 15.8196C32.8686 16.4943 33.8219 17.4878 34.4479 18.684C35.0738 19.8802 35.3465 21.2298 35.2342 22.5752C35.1219 23.9206 34.6292 25.2063 33.8136 26.2821C32.998 27.358 31.8932 28.1797 30.6281 28.6512V19.6623C30.6215 19.4455 30.5586 19.2342 30.4457 19.049C30.3327 18.8639 30.1736 18.7114 29.9839 18.6064ZM33.1675 13.8198L32.9427 13.6849L25.3846 9.28039C25.1961 9.16975 24.9814 9.11143 24.7628 9.11143C24.5442 9.11143 24.3296 9.16975 24.1411 9.28039L14.8977 14.6137V10.9209C14.8958 10.9021 14.8989 10.8831 14.9068 10.866C14.9147 10.8489 14.9271 10.8342 14.9427 10.8235L22.5907 6.41139C23.7628 5.73613 25.103 5.40857 26.4545 5.46702C27.806 5.52548 29.1129 5.96754 30.2224 6.74149C31.3319 7.51544 32.1981 8.5893 32.7196 9.83746C33.2412 11.0856 33.3966 12.4565 33.1677 13.7897L33.1675 13.8198ZM13.1521 20.3664L9.95377 18.5237C9.93777 18.5141 9.92409 18.5011 9.91369 18.4855C9.90329 18.47 9.89644 18.4524 9.89361 18.434V9.61748C9.89537 8.26496 10.2821 6.94088 11.0087 5.80007C11.7352 4.65925 12.7715 3.74884 13.9964 3.17528C15.2213 2.60172 16.5842 2.38871 17.9256 2.56117C19.2671 2.73362 20.5318 3.28441 21.5718 4.14913L21.347 4.27658L13.7815 8.64342C13.5932 8.75385 13.4369 8.91137 13.3278 9.10049C13.2188 9.28962 13.1609 9.50385 13.1597 9.72214L13.1521 20.3664ZM14.89 16.6212L19.0098 14.2465L23.1374 16.6212V21.3702L19.0249 23.7448L14.8976 21.3702L14.89 16.6212Z" fill="black"/>
</svg>
