<svg width="36" height="36" viewBox="0 0 36 36" fill="none" xmlns="http://www.w3.org/2000/svg">
<path d="M18.0115 0C19.0284 0.00186798 20.0284 0.0877952 21.0006 0.25031V10.7297L28.43 3.31941C29.2505 3.90221 30.0182 4.5504 30.7279 5.25837C31.438 5.96634 32.0898 6.7341 32.674 7.55226L25.2443 14.9625H35.751C35.9141 15.932 36.0002 16.9258 36.0002 17.942V17.9663C36.0002 18.9824 35.9141 19.9781 35.751 20.9476H25.2425L32.674 28.356C32.0898 29.1741 31.438 29.9419 30.7301 30.6499H30.7279C30.0182 31.3578 29.2505 32.0079 28.4321 32.5888L21.0006 25.1785V35.6579C20.0302 35.8205 19.0301 35.9063 18.0133 35.9084H17.9872C16.97 35.9063 15.9739 35.8205 15.0017 35.6579V25.1785L7.5723 32.5888C5.93154 31.4251 4.49707 29.9923 3.32826 28.356L10.758 20.9476H0.25124C0.0864122 19.9762 0.000244141 18.9768 0.000244141 17.9606V17.9085C0.0019521 17.6448 0.01922 17.3226 0.0440224 16.9893L0.0516809 16.8891C0.125119 15.9509 0.25124 14.9625 0.25124 14.9625H10.758L3.32826 7.55226C3.9107 6.7341 4.56071 5.9682 5.27044 5.26212L5.27401 5.25837C5.98231 4.5504 6.75174 3.90221 7.5723 3.31941L15.0017 10.7297V0.25031C15.9739 0.0877952 16.9721 0.00186798 17.9908 0H18.0115ZM18.0097 13.4663H17.9926C16.6553 13.4663 15.3746 13.711 14.1908 14.1556C13.7471 15.3343 13.5015 16.612 13.4997 17.9457V17.9625C13.5015 19.2962 13.7471 20.574 14.1926 21.7526C15.3746 22.1973 16.6553 22.442 17.9926 22.442H18.0097C19.3469 22.442 20.6277 22.1973 21.8097 21.7526C22.2552 20.5721 22.5008 19.2962 22.5008 17.9625V17.9457C22.5008 16.612 22.2552 15.3343 21.8097 14.1556C20.6277 13.711 19.3469 13.4663 18.0097 13.4663Z" fill="#FF4A00"/>
</svg>
