<svg xmlns="http://www.w3.org/2000/svg" id="Layer_1" version="1.1" viewBox="0 0 771.49 624.32">
  <!-- Generator: Adobe Illustrator 30.1.0, SVG Export Plug-In . SVG Version: 2.1.1 Build 136)  -->
  <defs fill="#f3f2f7">
    <style>
      .st0 {
        fill: #ffffff;
      }

      .st1 {
        fill: #ffffff;
      }
    </style>
  </defs>
  <path class="st0" d="M128.1,263.01l36.48,81.61,54.41,120.33,31.78,70.43,26.08,58.76,14.2-31.77,42.87-100.03,110.68-256.65,326.88.09v418.55l-129.15-.49-32.64-.32-.55-39.28-.2-249.59.74-43.2,62.21-.35v273.24s29.07-.13,29.07-.13l.02-297.09-215.11-.11c-1.81,3.36-91.13,214.37-91.13,214.37l-28.79,66.21-32.45,76.72h-106.98l-44-98.57-56.11-125.94L37.33,200.16,0,117.23l66.48-.34,22.98,55.66" fill="#f3f2f7"/>
  <path class="st1" d="M270.16,382.78l110.82-263.32,180.44-.32,210.07-.35-.14,62.58-345.22.11c-1.97,1.09-36.48,76.01-36.48,76.01l-30.26,70.72-38.76,91.87-28.85,69.41-16.67,38.56-32.26-72.52-41.21-94.74-22.66-53.31-25.8-60.31-52.9-130.21,61.76.21,56.5,133.4" fill="#f3f2f7"/>
  <path class="st1" d="M718.99,102.72l-49.98-52.38L721.53,0l26.66,27.94,22.97,24.74-52.17,50.04ZM719.87,70.61l19.48-18.97-18.78-19.25-19.54,18.76,18.83,19.46Z" fill="#f3f2f7"/>
</svg>