<svg width="65" height="19" viewBox="0 0 65 19" fill="none" xmlns="http://www.w3.org/2000/svg">
<path d="M16.9023 0.271484H19.8923V18.7313H16.9023V0.271484Z" fill="white"/>
<path d="M30.2915 12.8809C30.2915 15.7409 27.9515 16.0009 27.1715 16.0009C25.3515 16.0009 25.0915 14.3109 25.0915 13.4009V6.25098H22.1016V13.2709C22.1016 14.9609 22.6216 16.5209 23.6615 17.4309C24.5715 18.3409 25.7415 18.7309 27.1715 18.7309C28.2115 18.7309 29.5115 18.4709 30.2915 17.6909V18.7309H33.2815V6.25098H30.2915V12.8809Z" fill="white"/>
<path d="M39.1257 1.70117H36.1358V6.25113H33.9258V9.11111H36.1358V18.731H39.1257V9.11111H41.3357V6.25113H39.1257V1.70117Z" fill="white"/>
<path d="M50.6973 14.9611C50.0474 15.4811 49.1374 15.8711 48.2274 15.8711C46.1474 15.8711 44.7174 14.3111 44.7174 12.2312C44.7174 10.1512 46.1474 8.72119 48.2274 8.72119C49.1374 8.72119 50.0474 8.98118 50.6973 9.63118L51.0873 10.0212L53.1673 8.07119L52.6473 7.68119C51.4773 6.6412 49.9174 5.99121 48.2274 5.99121C44.5874 5.99121 41.8574 8.72119 41.8574 12.3612C41.8574 16.0011 44.5874 18.7311 48.2274 18.7311C49.9174 18.7311 51.4773 18.0811 52.6473 17.0411L53.1673 16.6511L51.0873 14.5711L50.6973 14.9611Z" fill="white"/>
<path d="M63.7015 7.29143C62.7915 6.38144 61.8815 5.99144 60.4515 5.99144C59.4115 5.99144 58.3715 6.25143 57.5915 7.03143V0.271484H54.6016V18.7313H57.5915V11.8414C57.5915 8.98141 59.5415 8.72141 60.3215 8.72141C62.1415 8.72141 62.0115 10.4114 62.0115 11.3214V18.6013H65.0015V11.4514C65.0015 9.76141 64.6115 8.20142 63.7015 7.29143Z" fill="white"/>
<path d="M48.1015 14.4412C49.2502 14.4412 50.1815 13.51 50.1815 12.3612C50.1815 11.2125 49.2502 10.2812 48.1015 10.2812C46.9527 10.2812 46.0215 11.2125 46.0215 12.3612C46.0215 13.51 46.9527 14.4412 48.1015 14.4412Z" fill="#EF4335"/>
<path d="M12.7399 14.1815C11.6999 15.2215 10.1399 15.8715 8.44993 15.8715C5.19996 15.8715 2.85998 13.2715 2.85998 9.76154C2.85998 6.25157 5.19996 3.65159 8.57993 3.65159C10.1399 3.65159 11.6999 4.30159 12.8699 5.47158L13.2599 5.86157L15.2099 3.91159L14.8199 3.52159C13.1299 1.83161 10.9199 0.921614 8.57993 0.921614C3.63997 0.791615 0 4.69158 0 9.76154C0 14.8315 3.63997 18.7315 8.44993 18.7315C10.7899 18.7315 13.1299 17.8215 14.6899 16.1315L15.0799 15.7415L13.1299 13.7915L12.7399 14.1815Z" fill="white"/>
</svg>
