<svg version="1.1" id="Layer_1" xmlns="http://www.w3.org/2000/svg" xmlns:xlink="http://www.w3.org/1999/xlink" x="0px" y="0px" width="100%" viewBox="0 0 1024 576" enable-background="new 0 0 1024 576" xml:space="preserve">
<path fill="#ffffff" opacity="1.000000" stroke="none" d="
M504.831421,183.324997 
	C505.559631,182.223480 506.595245,181.217056 506.969879,180.006165 
	C512.311035,162.742081 542.411072,150.290222 559.401855,155.585327 
	C569.886963,158.852982 580.668335,160.991852 590.148010,166.839752 
	C617.711426,183.843124 625.342285,218.319656 607.467712,245.175232 
	C604.517883,249.607178 601.297729,253.867569 598.057922,258.096466 
	C590.165588,268.398285 584.991455,279.110809 592.847595,292.149292 
	C585.360168,289.518097 583.166260,278.435150 587.116272,265.635193 
	C581.927368,270.118469 580.309998,275.616821 580.521912,288.053070 
	C576.639709,285.369202 576.360474,282.993164 578.203247,266.671417 
	C573.033691,271.626770 570.971436,277.318542 569.237000,283.385803 
	C567.474060,289.552917 569.283447,295.467804 570.082153,301.523407 
	C566.672974,301.636688 566.665710,298.643585 565.040771,297.407166 
	C564.008301,298.031891 565.397034,298.944519 564.756836,299.594940 
	C559.827087,298.365570 555.414001,292.862610 552.258301,283.649139 
	C551.823486,292.125793 555.186218,298.455658 561.596130,304.470795 
	C552.488770,302.834869 545.910034,295.723633 538.598328,280.814911 
	C537.088562,285.783844 539.159668,290.264709 539.776794,295.519379 
	C536.220337,293.475006 535.749634,290.337952 534.672180,287.732788 
	C530.715332,278.165619 530.478333,268.667725 535.583435,259.332916 
	C539.902771,251.434952 547.026489,248.212631 555.689087,250.398697 
	C559.401489,251.335556 563.082886,252.412186 566.822998,253.218399 
	C573.046875,254.559982 576.172668,251.833176 575.561829,245.546448 
	C575.328247,243.142548 575.560181,241.358231 577.150574,239.180756 
	C578.895630,236.791611 580.679260,232.933884 579.906189,230.534393 
	C578.567505,226.379211 580.300293,225.223938 583.201050,223.703445 
	C586.074829,222.197113 586.423889,220.051163 583.946411,217.741241 
	C576.786316,211.065323 575.474304,202.967194 577.182800,193.615540 
	C578.943176,183.980774 575.799744,175.290421 569.816345,166.468109 
	C568.897400,172.208099 568.192993,177.032440 567.345032,181.831390 
	C563.806396,201.856873 552.726990,216.252716 534.350159,224.729523 
	C525.754272,228.694595 517.023743,232.042969 515.640076,244.080170 
	C513.033447,238.774994 513.060425,238.663849 518.552368,228.575867 
	C510.907623,229.419769 503.369507,229.363983 494.876099,229.174362 
	C497.036682,225.364944 499.934357,224.107559 502.551086,222.591034 
	C517.255432,214.069138 531.639282,205.047012 545.539368,195.260910 
	C548.702576,193.033920 551.404785,190.326675 553.773560,187.300018 
	C554.853394,185.920212 556.357544,184.536133 554.785950,181.576614 
	C533.965942,189.402344 514.760864,200.941208 494.444458,209.983673 
	C492.674774,207.366165 494.846802,205.560410 495.072693,202.876251 
	C495.794403,201.199524 496.383209,200.170898 497.202759,198.875580 
	C499.724731,193.990738 503.075653,189.873138 504.146057,184.465363 
	C504.446472,183.977280 504.638947,183.651138 504.831421,183.324997 
M561.159607,189.656052 
	C561.617676,188.058121 562.183777,186.481400 562.503052,184.856201 
	C562.813599,183.275452 564.036133,181.809418 563.338745,179.878342 
	C553.717529,203.625320 538.021912,219.658325 511.581177,222.791367 
	C508.079376,223.206314 504.467529,223.691605 501.233246,226.233795 
	C532.600464,226.479462 552.938538,214.186157 561.159607,189.656052 
M518.565308,179.062439 
	C500.134247,197.293182 500.134247,197.293182 499.199310,204.603409 
	C517.173340,192.247726 526.626099,171.339523 546.287964,161.763214 
	C535.640137,164.893600 526.954163,171.085281 518.565308,179.062439 
M572.165283,262.643799 
	C566.318726,270.727814 562.703125,279.344543 565.728271,290.471832 
	C566.295593,278.777924 571.201538,269.780609 577.385864,261.353241 
	C581.527405,255.709625 585.806580,250.158310 588.968323,243.884399 
	C592.688416,236.502533 595.427185,228.852722 594.522095,220.367294 
	C594.010681,229.095215 591.001587,236.913849 585.901917,243.951370 
	C581.505005,250.019012 577.031860,256.031311 572.165283,262.643799 
M595.708252,240.016647 
	C592.066467,246.841187 588.424683,253.665726 584.226196,261.533417 
	C603.662598,241.271439 609.252930,214.511795 599.267578,195.877014 
	C602.792725,210.725204 602.067688,225.235321 595.708252,240.016647 
z" data-index="0" style="visibility: visible; opacity: 1; fill: rgb(255, 255, 255);"></path>
<path fill="#ffffff" opacity="1.000000" stroke="none" d="
M473.767548,249.818542 
	C477.064148,244.168823 477.983887,237.664703 484.093658,233.955734 
	C490.005463,230.366959 496.160339,230.702682 502.439178,230.776749 
	C505.417786,230.811859 505.921631,233.603882 506.762573,235.661850 
	C512.239319,249.064453 516.773438,262.935394 523.303528,275.796265 
	C527.941406,284.930511 527.685608,292.884918 523.697754,301.571411 
	C522.451538,304.285950 521.584656,307.174622 520.542236,309.982880 
	C519.891968,311.734711 519.253174,313.554779 516.887146,313.422363 
	C514.749756,313.302673 514.422607,311.412720 513.810181,309.933380 
	C508.844238,297.939026 503.958221,285.911530 498.972198,273.925598 
	C494.447693,263.049042 489.828217,252.212021 484.805420,240.301880 
	C479.418030,253.131287 474.411102,265.054596 469.222351,277.410980 
	C465.202637,273.912506 464.531311,270.448975 466.226868,266.551483 
	C468.617096,261.057129 471.164703,255.631256 473.767548,249.818542 
z" data-index="1" style="visibility: visible; opacity: 1; fill: rgb(255, 255, 255);"></path>
<path fill="#ffffff" opacity="1.000000" stroke="none" d="
M496.972046,199.142273 
	C496.383209,200.170898 495.794403,201.199524 495.132050,202.505020 
	C492.232880,207.403122 489.749969,212.186966 487.966675,218.086151 
	C486.157959,222.786179 484.574585,226.813232 481.750488,230.181046 
	C476.175049,241.906677 470.573730,253.620117 465.041290,265.365997 
	C463.539917,268.553589 463.911896,271.798340 464.983490,275.094696 
	C469.262970,288.259155 468.015594,292.508331 457.544678,301.143738 
	C452.382660,305.400879 452.848816,312.938080 458.486145,318.117828 
	C459.661285,319.197571 462.581360,319.934998 460.825226,322.172424 
	C459.178894,324.270020 457.121246,322.396667 455.585083,321.295471 
	C452.075958,318.780121 449.873810,315.252533 448.736481,311.128540 
	C447.545349,306.809448 445.192383,303.432678 441.842346,300.412079 
	C430.350098,290.050140 433.689850,274.413147 448.319183,269.382477 
	C460.252960,265.278748 467.500885,253.012955 465.350830,240.314575 
	C464.817047,237.161926 464.518402,234.051666 464.954834,230.438416 
	C465.000061,229.995407 464.979858,230.018051 464.979858,230.018051 
	C473.298187,216.033264 481.427795,201.931549 489.995239,188.101089 
	C496.712097,177.257996 502.764648,165.847321 512.740356,157.403809 
	C514.070618,156.277832 515.172058,154.595871 518.158447,154.754364 
	C513.671265,164.225266 509.336304,173.374802 504.916382,182.924652 
	C504.638947,183.651138 504.446472,183.977280 503.926086,184.762665 
	C501.027557,189.689758 498.141876,194.007645 496.972046,199.142273 
M449.729095,297.727142 
	C455.709503,297.692566 459.447723,294.392517 461.253601,289.072815 
	C462.696838,284.821381 462.503235,280.435638 459.225006,276.861664 
	C456.990662,274.425720 454.208160,272.992218 450.745636,273.716705 
	C445.239868,274.868652 440.864227,279.991272 440.372437,285.791138 
	C439.912811,291.211151 442.986328,295.454559 449.729095,297.727142 
z" data-index="2" style="visibility: visible; opacity: 1; fill: rgb(255, 255, 255);"></path>
<path fill="#ffffff" opacity="1.000000" stroke="none" d="
M479.955383,195.021332 
	C482.315399,194.885544 483.737427,195.554367 482.279144,198.145370 
	C478.278320,205.253723 474.226868,212.333923 470.146179,219.396790 
	C468.816223,221.698654 466.429199,221.904343 464.089081,222.271744 
	C450.941589,224.335861 437.868164,222.819748 424.751129,221.776443 
	C410.209595,220.619812 396.818329,222.972733 387.294861,235.719879 
	C385.270691,238.429230 384.732056,242.061508 381.065979,245.349991 
	C383.170074,231.708344 390.200317,223.469742 401.269073,218.156876 
	C394.115509,215.913925 388.870758,217.749237 372.481567,228.211395 
	C371.820374,225.934357 373.507507,224.839966 374.577118,223.659149 
	C384.191589,213.045074 396.421265,210.190323 410.044556,212.274170 
	C418.258331,213.530548 426.429413,214.547653 435.306091,213.744797 
	C423.942291,211.053665 413.203156,208.142761 402.308777,206.033783 
	C391.383209,203.918777 380.686066,204.312317 371.883270,212.675171 
	C371.583801,212.959671 370.990814,212.935226 370.068878,213.176895 
	C370.042236,210.280533 371.984589,208.915955 373.619202,207.481247 
	C384.470398,197.957092 397.043488,198.541183 409.967712,201.424103 
	C421.321655,203.956726 432.544342,207.455734 444.375122,206.702164 
	C457.023041,205.896515 468.962250,202.689774 479.801880,195.256439 
	C479.989624,194.998306 479.955383,195.021332 479.955383,195.021332 
z" data-index="3" style="visibility: visible; opacity: 1; fill: rgb(255, 255, 255);"></path>
<path fill="#ffffff" opacity="1.000000" stroke="none" d="
M418.086090,375.046173 
	C419.307648,378.497620 420.397552,381.578461 421.983582,386.061798 
	C425.150635,376.564667 428.308105,368.535522 430.416077,360.239716 
	C431.697540,355.196747 427.669556,352.214630 423.302856,350.172516 
	C427.134216,347.134705 440.211792,347.007568 443.772339,349.725800 
	C443.569153,351.013550 442.495361,351.121887 441.536743,351.301239 
	C438.460205,351.876892 437.830719,353.682098 438.809662,356.429535 
	C442.045105,365.509735 445.251740,374.600220 448.786407,384.581909 
	C451.392822,380.670044 452.037231,376.918213 453.338989,373.494232 
	C455.053375,368.985016 456.435669,364.349426 457.955597,359.766479 
	C459.250916,355.860718 460.129028,352.081116 454.424469,349.834351 
	C459.834045,348.380005 464.834625,348.679016 470.330261,348.852203 
	C458.589752,360.980469 458.324921,377.291321 452.103638,391.070374 
	C450.790222,393.979309 451.336609,399.104645 447.763855,399.277466 
	C444.144348,399.452515 444.076263,394.394226 442.913086,391.505432 
	C439.711731,383.554596 436.908722,375.443390 433.433380,365.996460 
	C430.616608,374.032928 428.318573,380.590759 426.019440,387.148193 
	C425.082611,389.820160 424.253632,392.537262 423.166138,395.146515 
	C422.451752,396.860504 422.508881,399.586365 419.815063,399.475891 
	C417.530243,399.382141 417.418915,396.963684 416.824188,395.333954 
	C413.741669,386.887054 410.749481,378.407196 407.733612,369.936035 
	C407.007568,367.896667 406.330994,365.839600 405.597839,363.802826 
	C402.481506,355.145294 402.476837,355.146973 396.245422,349.289673 
	C402.750427,349.289673 408.593292,349.289673 415.953400,349.289673 
	C410.086151,352.542725 411.514130,356.187500 412.957825,360.019684 
	C414.776489,364.847260 416.302277,369.785217 418.086090,375.046173 
z" data-index="4" style="opacity: 1; visibility: visible; fill: rgb(255, 255, 255);"></path>
<path fill="#ffffff" opacity="1.000000" stroke="none" d="
M425.177826,161.729340 
	C428.741425,163.798431 427.574524,164.677231 424.732513,165.344131 
	C416.785217,167.209061 415.363251,169.592194 418.088898,177.198898 
	C420.613312,184.243896 423.508545,191.155334 426.162964,198.154968 
	C426.781555,199.786072 428.064606,201.357040 426.901550,203.942688 
	C419.292114,202.249741 411.560852,200.623444 403.887939,198.757141 
	C401.953949,198.286713 401.455597,196.146423 400.785065,194.453812 
	C398.579224,188.885544 396.415802,183.300507 394.229065,177.724640 
	C391.780762,171.481812 387.833435,166.854202 380.932495,165.419937 
	C379.464996,165.114914 377.638977,164.967697 378.056793,162.844498 
	C378.391571,161.143295 380.052612,161.402100 381.357208,161.409439 
	C395.826721,161.490799 410.296112,161.586258 425.177826,161.729340 
z" data-index="5" style="visibility: visible; opacity: 1; fill: rgb(255, 255, 255);"></path>
<path fill="#ffffff" opacity="1.000000" stroke="none" d="
M480.004059,194.983673 
	C475.825897,196.053833 472.557526,199.327103 468.238098,200.069519 
	C466.265045,199.114975 466.020599,197.149231 465.330688,195.535294 
	C462.716156,189.418991 460.281097,183.225037 457.612030,177.133255 
	C454.933929,171.020889 450.712067,166.588074 443.796387,165.377411 
	C442.536438,165.156845 440.789093,165.276901 440.820404,163.440735 
	C440.859314,161.159302 442.868347,161.687271 444.230225,161.626236 
	C458.524506,160.985718 472.820251,161.452637 487.115173,161.655273 
	C488.557709,161.675735 490.169830,161.494659 490.849396,163.269226 
	C490.292816,165.996017 487.995453,165.132843 486.397675,165.542313 
	C481.374390,166.829529 479.526398,169.824615 480.968018,174.793915 
	C481.661377,177.183960 482.578003,179.513062 483.465790,181.842224 
	C486.276764,189.216980 486.289917,189.211960 480.148499,194.743134 
	C479.955383,195.021332 479.989624,194.998306 480.004059,194.983673 
z" data-index="6" style="visibility: visible; opacity: 1; fill: rgb(255, 255, 255);"></path>
<path fill="#ffffff" opacity="1.000000" stroke="none" d="
M518.968628,388.683350 
	C518.142517,393.882202 522.007874,395.526245 524.943420,398.252502 
	C519.280762,399.613983 513.810547,399.354645 507.841980,398.138855 
	C515.848450,394.921600 513.890259,388.366241 514.061157,382.641510 
	C514.259827,375.986328 514.342590,369.327637 514.543945,362.672546 
	C514.707764,357.258392 514.389771,352.147614 507.353302,350.575897 
	C512.296997,347.333435 518.262390,347.966156 521.517212,351.854950 
	C529.533508,361.432495 537.413147,371.124390 545.358093,380.761780 
	C546.163391,381.738586 547.039062,382.657410 548.650208,384.464844 
	C548.650208,374.453583 548.660583,365.532959 548.645264,356.612427 
	C548.638794,352.842407 544.888428,352.058167 542.028870,349.124756 
	C548.275024,349.124756 553.481140,349.124756 558.687256,349.124756 
	C551.684570,352.684357 553.285278,358.974762 553.251404,364.596710 
	C553.190125,374.758087 553.270874,384.920227 553.244141,395.081909 
	C553.240356,396.514130 553.694031,398.343445 551.939453,399.050690 
	C549.885254,399.878723 548.995239,398.008087 547.992249,396.772064 
	C538.563354,385.152252 529.166992,373.506012 518.961914,360.878326 
	C518.961914,370.830475 518.961914,379.527100 518.968628,388.683350 
z" data-index="7" style="visibility: visible; opacity: 1; fill: rgb(255, 255, 255); stroke: rgb(255, 255, 255);"></path>
<path fill="#ffffff" opacity="1.000000" stroke="none" d="
M571.741577,351.356232 
	C569.578674,349.500885 570.789246,348.806549 572.381165,348.791748 
	C582.541382,348.697021 592.702637,348.714447 602.863586,348.705536 
	C604.686096,348.703918 605.676147,349.772125 605.783875,351.466400 
	C605.955566,354.166870 606.854797,356.975739 605.150391,359.798004 
	C602.192749,358.455872 602.209229,354.831879 599.347473,353.679688 
	C594.814209,351.854553 590.184570,352.310425 585.546448,352.473969 
	C583.929138,352.531036 583.305969,353.736481 583.267944,355.231689 
	C583.225647,356.896332 582.960022,358.618652 583.283630,360.216248 
	C583.993103,363.719055 580.858215,369.072998 585.381287,370.430542 
	C590.306274,371.908691 596.468201,372.650085 600.411377,365.011322 
	C601.703491,371.127136 601.530273,375.783417 600.299194,380.924896 
	C597.611145,373.915100 591.962646,375.233521 586.793762,375.213684 
	C584.246643,375.203918 583.146667,376.379150 583.243530,378.870056 
	C583.295288,380.200439 582.965820,381.606415 583.288330,382.854218 
	C584.292175,386.738251 580.453247,392.251556 585.827820,394.444275 
	C592.927979,397.341034 601.942566,394.229279 605.830688,388.626251 
	C606.492188,387.673035 606.972717,386.522644 608.469421,386.830597 
	C610.600769,394.439301 607.374023,399.141266 599.979736,399.161133 
	C591.484009,399.183960 582.987854,399.207703 574.492554,399.148102 
	C572.938049,399.137207 571.142151,399.777740 569.469604,397.639526 
	C576.897705,394.582611 574.772888,388.083221 574.895874,382.430603 
	C575.073303,374.271851 574.944519,366.106384 574.936707,357.943787 
	C574.934265,355.390961 574.826904,352.871002 571.741577,351.356232 
z" data-index="8" style="opacity: 1; visibility: visible; fill: rgb(255, 255, 255);"></path>
<path fill="#ffffff" opacity="1.000000" stroke="none" d="
M481.811157,230.527054 
	C484.574585,226.813232 486.157959,222.786179 487.883057,218.453827 
	C490.179352,213.651062 494.349640,211.731842 498.538971,209.642532 
	C514.891968,201.486893 531.096558,193.030472 547.782654,185.557480 
	C549.646729,184.722610 551.420654,183.274094 554.112183,184.091354 
	C552.428833,188.709991 548.872253,191.241531 545.513916,193.751099 
	C528.977966,206.107574 510.848389,215.989777 493.454712,227.017136 
	C490.789154,228.707047 488.165985,230.470169 485.438110,232.052765 
	C483.979065,232.899261 482.228821,233.757172 481.811157,230.527054 
z" data-index="9" style="visibility: visible; opacity: 1; fill: rgb(255, 255, 255);"></path>
<path fill="#ffffff" opacity="1.000000" stroke="none" d="
M465.006836,229.981567 
	C464.660675,230.715790 463.935150,231.505081 464.012695,232.205490 
	C464.764038,238.992569 460.647797,238.754593 455.562500,239.251587 
	C446.787933,240.109177 439.386749,244.246414 435.347717,252.663193 
	C432.160034,259.305939 427.725647,264.372803 420.168274,265.824829 
	C413.912903,267.026672 408.533569,265.221375 404.701477,260.111298 
	C400.774628,254.874832 400.289490,249.062515 403.473663,243.251617 
	C408.779419,233.568909 420.419495,230.601242 428.961975,237.349701 
	C434.295380,241.563034 438.897034,241.009048 443.935028,237.738388 
	C449.387421,234.198746 455.086578,231.122879 461.038330,228.538422 
	C462.346466,227.970367 464.393494,225.786942 465.022552,229.673920 
	C464.979858,230.018051 465.000061,229.995407 465.006836,229.981567 
M424.124664,258.812927 
	C429.826233,254.151382 431.248749,249.028137 428.198730,244.140015 
	C424.960693,238.950531 418.530548,237.554672 412.841980,240.806274 
	C407.721802,243.732925 405.461914,250.415817 407.878510,255.484116 
	C410.425690,260.826294 416.434235,262.261078 424.124664,258.812927 
z" data-index="10" style="visibility: visible; opacity: 1; fill: rgb(255, 255, 255);"></path>
<path fill="#ffffff" opacity="1.000000" stroke="none" d="
M483.703552,372.001678 
	C483.706451,367.837982 483.529755,364.162415 483.758972,360.512299 
	C484.038635,356.059937 483.472046,352.192627 478.536194,349.785706 
	C484.686432,348.456116 490.604645,348.544678 497.278534,349.745148 
	C490.018524,352.233124 491.395050,357.879883 491.408020,362.884003 
	C491.428284,370.706970 491.108887,378.536163 491.853333,386.351746 
	C492.277710,390.806549 490.475708,396.159424 497.633942,398.066742 
	C490.799194,399.356903 484.644562,399.490326 477.974274,398.169708 
	C485.548035,394.866455 483.553192,388.546967 483.680878,382.993988 
	C483.761230,379.498047 483.701019,375.998810 483.703552,372.001678 
z" data-index="11" style="visibility: visible; opacity: 1; fill: rgb(255, 255, 255); stroke: rgb(255, 255, 255);"></path>
<path fill="#ffffff" opacity="1.000000" stroke="none" d="
M433.430481,275.221954 
	C432.150024,271.188354 427.904510,267.144806 430.239960,263.911560 
	C434.495270,258.020477 435.750031,249.787491 443.586456,245.700409 
	C447.050476,251.755798 449.213593,258.002747 451.642120,264.117371 
	C452.374786,265.962036 451.289886,266.894836 449.616791,267.377838 
	C444.395996,268.885010 439.664551,271.126068 436.415436,275.782440 
	C435.547791,277.025848 434.442596,276.782837 433.430481,275.221954 
z" data-index="12" style="visibility: visible; opacity: 1; fill: rgb(255, 255, 255);"></path>
<path fill="#ffffff" opacity="1.000000" stroke="none" d="
M414.335419,223.461716 
	C420.986938,222.123032 427.248077,223.312698 433.511688,223.923569 
	C437.658051,224.327957 437.731934,228.244537 438.696472,231.041031 
	C439.456909,233.245850 442.394867,235.860580 439.143219,238.091736 
	C436.331635,240.020950 433.532593,239.080963 431.006958,236.804642 
	C428.080566,234.167160 424.355194,233.065979 420.572662,232.383850 
	C415.259613,231.425705 413.846954,229.669952 414.335419,223.461716 
z" data-index="13" style="visibility: visible; opacity: 1; fill: rgb(255, 255, 255);"></path>
<path fill="#ffffff" opacity="1.000000" stroke="none" d="
M560.096008,428.950806 
	C560.110596,432.187195 559.834656,435.051422 562.433594,437.336548 
	C559.937805,438.746338 557.907715,438.306396 555.811829,437.825226 
	C556.866333,429.644592 558.491394,421.582672 554.370117,412.988037 
	C565.312988,412.963074 566.213440,424.364716 573.608521,428.223694 
	C573.886963,423.385590 575.092346,418.463470 571.580566,413.726044 
	C574.082520,412.318298 576.443176,412.942535 579.391541,413.189423 
	C574.770264,421.145691 578.964355,429.888489 575.901367,439.097656 
	C570.498108,432.681000 565.767883,427.063629 560.095093,420.326904 
	C560.095093,424.000366 560.095093,426.257202 560.096008,428.950806 
z" data-index="14" style="visibility: visible; fill: rgb(255, 255, 255); opacity: 1;"></path>
<path fill="#ffffff" opacity="1.000000" stroke="none" d="
M522.934265,417.007080 
	C529.319031,411.960663 535.286377,411.449982 540.497070,415.252014 
	C544.578186,418.229797 546.490173,424.469788 544.752136,429.572052 
	C542.996582,434.726105 539.500793,437.983704 533.958984,438.545013 
	C528.715698,439.076050 524.474792,437.127380 521.773193,432.547394 
	C518.698486,427.334778 518.781860,422.160339 522.934265,417.007080 
M526.251526,419.056000 
	C524.824280,421.668518 524.881775,424.496338 525.176453,427.313568 
	C525.728149,432.586395 528.886169,435.868164 533.191589,435.788452 
	C537.492493,435.708862 540.386475,432.305054 540.595764,426.839874 
	C540.651611,425.380463 540.202515,423.904297 540.011108,422.432434 
	C539.132446,415.678772 530.781250,412.832825 526.251526,419.056000 
z" data-index="15" style="visibility: visible; fill: rgb(255, 255, 255); stroke: rgb(255, 255, 255); opacity: 1;"></path>
<path fill="#ffffff" opacity="1.000000" stroke="none" d="
M472.704529,413.651367 
	C477.380096,421.235962 479.152557,429.889038 484.247894,437.323273 
	C481.816650,439.015167 479.328400,438.170654 476.874664,437.899872 
	C476.637421,430.637848 475.921692,429.947418 470.337067,430.191345 
	C464.711334,430.437042 466.516113,434.318634 466.649780,437.491547 
	C464.577423,438.496399 462.594421,438.521851 460.155121,437.481720 
	C464.513245,431.224365 466.192627,424.067780 469.269775,417.521149 
	C469.995178,415.977905 470.026184,413.789246 472.704529,413.651367 
M473.454254,425.513733 
	C473.231720,423.910034 472.895294,422.367859 471.020386,421.254730 
	C470.297760,422.923523 468.989990,424.202545 469.285767,426.404449 
	C469.833862,426.562103 470.441895,426.916901 471.003632,426.854492 
	C471.760376,426.770477 472.481384,426.365082 473.454254,425.513733 
z" data-index="16" style="visibility: visible; fill: rgb(255, 255, 255); stroke: rgb(255, 255, 255); opacity: 1;"></path>
<path fill="#ffffff" opacity="1.000000" stroke="none" d="
M445.260986,423.722107 
	C446.134705,424.250122 446.700745,424.598785 447.246429,424.976868 
	C450.510498,427.238373 452.942230,430.105408 450.829376,434.158752 
	C448.781281,438.087799 445.035980,439.430115 440.672455,438.697083 
	C436.609192,438.014496 434.473083,436.020416 436.008423,431.495056 
	C437.892975,431.925903 438.010254,433.796814 439.201965,434.611755 
	C441.487366,436.174652 444.106842,436.774323 445.982697,434.632324 
	C448.178406,432.125122 446.407257,430.045837 444.089386,428.542969 
	C442.279663,427.369598 440.322083,426.400604 438.613403,425.100098 
	C435.075287,422.407135 434.590942,418.016449 437.357605,415.142822 
	C439.988525,412.410187 447.235352,411.734680 449.373810,414.128784 
	C450.732452,415.649811 450.443085,417.417236 449.841187,419.083954 
	C447.685822,419.430023 447.762817,417.450928 446.754120,416.753326 
	C444.671448,415.312927 442.362823,414.449677 440.542389,416.742310 
	C438.697388,419.065979 440.552673,420.711517 442.365875,422.052887 
	C443.160889,422.641022 444.080750,423.060394 445.260986,423.722107 
z" data-index="17" style="opacity: 1; stroke-width: 2px; stroke: rgb(255, 255, 255); visibility: visible; fill: rgb(255, 255, 255);"></path>
<path fill="#ffffff" opacity="1.000000" stroke="none" d="
M493.892090,415.340027 
	C495.645020,412.524689 496.680969,412.363892 502.207703,413.797485 
	C498.362305,419.907898 500.060272,426.644592 500.408661,433.066925 
	C500.638214,437.298737 504.609985,435.724701 507.138824,435.071198 
	C508.588989,434.696442 509.787720,433.348663 511.166656,432.392426 
	C513.326355,438.657684 509.478699,439.098297 494.135315,437.700623 
	C496.024994,430.348389 496.940704,422.997986 493.892090,415.340027 
z" data-index="18" style="visibility: visible; opacity: 1; fill: rgb(255, 255, 255); stroke: rgb(255, 255, 255);"></path>
<path fill="#ffffff" opacity="1.000000" stroke="none" d="
M589.773804,165.303741 
	C588.262146,164.097076 586.294861,164.000366 585.629395,161.582275 
	C589.649841,160.350861 593.664124,160.882858 597.645813,161.230362 
	C598.459106,161.301315 599.168884,161.879364 599.313110,162.822235 
	C599.483398,163.935532 599.062805,164.817062 597.993530,165.173111 
	C595.399597,166.036819 592.811279,167.733414 589.773804,165.303741 
z" data-index="19" style="visibility: visible; opacity: 1; fill: rgb(255, 255, 255);"></path>
<path fill="#ffffff" opacity="1.000000" stroke="none" d="
M446.909973,295.550659 
	C440.952881,290.926697 440.047485,284.108765 444.556488,278.901978 
	C447.456390,275.553314 450.961029,273.587250 455.523834,275.837555 
	C459.452850,277.775330 461.734924,282.827515 460.666107,287.189240 
	C459.075745,293.679657 454.044373,296.885254 446.909973,295.550659 
z" data-index="20" style="visibility: visible; opacity: 1; fill: rgb(255, 255, 255);"></path>
</svg>